<svg xmlns="http://www.w3.org/2000/svg" width="16" height="13" viewBox="0 0 16 13"><path fill="#FFF" d="M14.012,12.712 C14.42,12.712 14.768,12.562 15.056,12.262 C15.344,11.962 15.488,11.608 15.488,11.2 L15.488,11.2 L15.488,2.2 C15.488,1.792 15.344,1.438 15.056,1.138 C14.768,0.838 14.42,0.688 14.012,0.688 L14.012,0.688 L1.988,0.688 C1.58,0.688 1.232,0.838 0.944,1.138 C0.656,1.438 0.512,1.792 0.512,2.2 L0.512,2.2 L0.512,11.2 C0.512,11.608 0.656,11.962 0.944,12.262 C1.232,12.562 1.58,12.712 1.988,12.712 L1.988,12.712 L14.012,12.712 Z M8,7.438 L1.988,3.712 L1.988,2.2 L8,5.962 L14.012,2.2 L14.012,3.712 L8,7.438 Z"/></svg>