<svg xmlns="http://www.w3.org/2000/svg" width="16" height="13" viewBox="0 0 16 13"><path d="M31.012,81.712 C31.42,81.712 31.768,81.562 32.056,81.262 C32.344,80.962 32.488,80.608 32.488,80.2 L32.488,80.2 L32.488,71.2 C32.488,70.792 32.344,70.438 32.056,70.138 C31.768,69.838 31.42,69.688 31.012,69.688 L31.012,69.688 L18.988,69.688 C18.58,69.688 18.232,69.838 17.944,70.138 C17.656,70.438 17.512,70.792 17.512,71.2 L17.512,71.2 L17.512,80.2 C17.512,80.608 17.656,80.962 17.944,81.262 C18.232,81.562 18.58,81.712 18.988,81.712 L18.988,81.712 L31.012,81.712 Z M25,76.438 L18.988,72.712 L18.988,71.2 L25,74.962 L31.012,71.2 L31.012,72.712 L25,76.438 Z" transform="translate(-17 -69)"/></svg>