<svg xmlns="http://www.w3.org/2000/svg" width="35" height="35" viewBox="0 0 35 35"><g fill="none" fill-rule="evenodd"><circle cx="17.5" cy="17.5" r="17.5" fill="#FFF"/><path fill="#000" fill-rule="nonzero" d="M18.75,24.25 L18.75,17.125 L20.828125,17.125 L21.125,14.75 L18.75,14.75 L18.75,13.3398438 C18.75,12.9934896 18.8180339,12.7460938 18.9541016,12.5976562 C19.0901693,12.4492188 19.3932292,12.375 19.8632812,12.375 L19.8632812,12.375 L21.125,12.375 L21.125,10 L19.046875,10 C17.8346354,10 16.96875,10.2659505 16.4492188,10.7978516 C15.9296875,11.3297526 15.6699219,12.1152344 15.6699219,13.1542969 L15.6699219,13.1542969 L15.6699219,14.75 L14,14.75 L14,17.125 L15.6699219,17.125 L15.6699219,24.25 L18.75,24.25 Z"/></g></svg>