<svg xmlns="http://www.w3.org/2000/svg" width="35" height="35" viewBox="0 0 35 35"><g fill="none" fill-rule="evenodd"><circle cx="17.5" cy="17.5" r="17.5" fill="#FFF"/><path fill="#000" fill-rule="nonzero" d="M20.2935739,24.5246058 C21.460428,24.4676861 22.4944694,24.2020607 23.3482651,23.3482651 C24.2020607,22.4944694 24.4676861,21.460428 24.5246058,20.2935739 C24.5815255,19.2879924 24.5720389,18.2918974 24.5720389,17.2863159 C24.5720389,16.2807343 24.5815255,15.2846394 24.5246058,14.2790578 C24.4676861,13.1122038 24.2020607,12.0781624 23.3482651,11.2243667 C22.4944694,10.370571 21.460428,10.1049457 20.2935739,10.048026 C19.5393878,10.0053362 18.7905378,10 18.0390198,10 L17.2863159,10.0005929 C16.2807343,10.0005929 15.2846394,9.9911063 14.2790578,10.048026 C13.1122038,10.1049457 12.0781624,10.370571 11.2243667,11.2243667 C10.370571,12.0781624 10.1049457,13.1122038 10.048026,14.2790578 C10.0053362,15.033244 10,15.7820939 10,16.533612 L10.0005929,17.2863159 C10.0005929,18.2918974 9.9911063,19.2879924 10.048026,20.2935739 C10.1049457,21.460428 10.370571,22.4944694 11.2243667,23.3482651 C12.0781624,24.2020607 13.1122038,24.4676861 14.2790578,24.5246058 C15.033244,24.5672955 15.7820939,24.5726318 16.533612,24.5726318 L17.2863159,24.5720389 C18.2918974,24.5720389 19.2879924,24.5815255 20.2935739,24.5246058 Z M17.2863159,23.2628855 C16.2238146,23.2628855 13.9470262,23.3482651 12.9888777,22.9688003 C12.6568461,22.8359877 12.410194,22.6747152 12.1540553,22.4185765 C11.8979166,22.1624378 11.7366441,21.9157857 11.6038314,21.583754 C11.2243667,20.6256056 11.3097463,18.3488172 11.3097463,17.2863159 C11.3097463,16.2238146 11.2243667,13.9470262 11.6038314,12.9888777 C11.7366441,12.6568461 11.8979166,12.410194 12.1540553,12.1540553 C12.410194,11.8979166 12.6568461,11.7366441 12.9888777,11.6038314 C13.8831496,11.2496643 15.9261034,11.3004283 17.0583756,11.3087709 L17.2863159,11.3097463 C18.3488172,11.3097463 20.6256056,11.2243667 21.583754,11.6038314 C21.9157857,11.7366441 22.1624378,11.8979166 22.4185765,12.1540553 C22.6747152,12.410194 22.8359877,12.6568461 22.9688003,12.9888777 C23.3482651,13.9470262 23.2628855,16.2238146 23.2628855,17.2863159 C23.2628855,18.3488172 23.3482651,20.6256056 22.9688003,21.583754 C22.8359877,21.9157857 22.6747152,22.1624378 22.4185765,22.4185765 C22.1624378,22.6747152 21.9157857,22.8359877 21.583754,22.9688003 C20.6256056,23.3482651 18.3488172,23.2628855 17.2863159,23.2628855 Z M21.1758294,14.2695712 C21.659647,14.2695712 22.0485983,13.8806199 22.0485983,13.3968023 C22.0485983,12.9129848 21.659647,12.5240334 21.1758294,12.5240334 C20.6920119,12.5240334 20.3030606,12.9129848 20.3030606,13.3968023 C20.3030606,13.8806199 20.6920119,14.2695712 21.1758294,14.2695712 Z M17.2863159,21.0240436 C19.3543987,21.0240436 21.0240436,19.3543987 21.0240436,17.2863159 C21.0240436,15.2182331 19.3543987,13.5485882 17.2863159,13.5485882 C15.2182331,13.5485882 13.5485882,15.2182331 13.5485882,17.2863159 C13.5485882,19.3543987 15.2182331,21.0240436 17.2863159,21.0240436 Z M17.2863159,19.7148902 C15.9487027,19.7148902 14.8577416,18.6239291 14.8577416,17.2863159 C14.8577416,15.9487027 15.9487027,14.8577416 17.2863159,14.8577416 C18.6239291,14.8577416 19.7148902,15.9487027 19.7148902,17.2863159 C19.7148902,18.6239291 18.6239291,19.7148902 17.2863159,19.7148902 Z"/></g></svg>