<svg xmlns="http://www.w3.org/2000/svg" width="35" height="35" viewBox="0 0 35 35"><g fill="none" fill-rule="evenodd"><circle cx="17.5" cy="17.5" r="17.5" fill="#FFF"/><path fill="#000" fill-rule="nonzero" d="M12.7455378,13.0769971 C13.8364989,13.0769971 14.5195354,12.3560141 14.5100488,11.4547853 C14.5005622,10.5345834 13.8364989,9.83257359 12.764511,9.83257359 C11.7020098,9.83257359 11,10.5345834 11,11.4547853 C11,12.3560141 11.6735499,13.0769971 12.7265646,13.0769971 L12.7455378,13.0769971 Z M19.1584919,23.7589295 L19.1584919,18.5128295 C19.1584919,18.2282309 19.1869517,17.953119 19.2628447,17.7444134 C19.4905235,17.1847029 20.0028009,16.6060192 20.8660832,16.6060192 C21.9949908,16.6060192 22.4503485,17.4693014 22.4503485,18.7310217 L22.4503485,23.7589295 L25.5714459,23.7589295 L25.5714459,18.3705302 C25.5714459,15.4865982 24.0346138,14.1394984 21.9760175,14.1394984 C20.3678098,14.1394984 19.6200664,14.991358 19.2001189,15.6297405 L19.158,15.695 L19.1584919,14.3576906 L16.0373944,14.3576906 L16.0378113,14.3696786 C16.0418413,14.4978035 16.0729692,15.7723826 16.0373944,23.7589295 L19.1584919,23.7589295 Z M14.3108298,23.7589295 L14.3108298,14.3576906 L11.1802458,14.3576906 L11.1802458,23.7589295 L14.3108298,23.7589295 Z"/></g></svg>