<svg xmlns="http://www.w3.org/2000/svg" width="35" height="35" viewBox="0 0 35 35"><g fill="none" fill-rule="evenodd"><circle cx="17.5" cy="17.5" r="17.5" fill="#FFF"/><path fill="#000" fill-rule="nonzero" d="M14.6941996,24.2142872 L14.8270123,24.1668541 C16.4207642,21.9849318 16.3638445,21.558034 17.0848275,18.7025618 C17.4737788,19.4425181 18.4793604,19.8409561 19.2762364,19.8409561 C22.6344993,19.8409561 24.1428716,16.5680727 24.1428716,13.6177344 C24.1428716,10.4776636 21.4296987,8.42855406 18.4509005,8.42855406 C15.206477,8.42855406 12,10.5915031 12,14.0920653 C12,15.3348123 12.4933042,17.1467564 13.8498906,17.554681 C13.8973237,17.5641676 13.96373,17.5831409 14.0111631,17.5831409 C14.3242215,17.5831409 14.5044673,16.710372 14.5044673,16.4637199 C14.5044673,16.1696347 13.7550244,15.5435179 13.7550244,14.3197441 C13.7550244,11.7773304 15.6902946,9.97487287 18.1947618,9.97487287 C20.3482242,9.97487287 21.9419761,11.1986466 21.9419761,13.4469752 C21.9419761,15.1261067 21.2684262,18.275664 19.086504,18.275664 C18.2991147,18.275664 17.6255647,17.7064669 17.6255647,16.8906177 C17.6255647,15.6953038 18.4603872,14.5379363 18.4603872,13.3046759 C18.4603872,12.5552331 18.0334893,11.9480895 17.2366134,11.9480895 C16.1551389,11.9480895 15.4910756,13.1623767 15.4910756,14.1205251 C15.4910756,14.6517758 15.5574819,15.2399461 15.7946474,15.7237636 C15.3582629,17.6021141 14.4665208,20.4006665 14.4665208,22.3359367 C14.4665208,22.9335937 14.5519004,23.521764 14.6088201,24.119421 L14.6941996,24.2142872 Z"/></g></svg>