<svg xmlns="http://www.w3.org/2000/svg" width="13" height="13" viewBox="0 0 13 13"><path stroke="#000" stroke-width=".5" d="M11.6155134,11.9375 C11.7396763,11.9375 11.8472842,11.8961124 11.9383371,11.8133371 C12.0211124,11.7222842 12.0625,11.6146763 12.0625,11.4905134 C12.0625,11.3663504 12.0211124,11.2587426 11.9383371,11.1676897 L9.38058036,8.62234933 C10.109003,7.73665365 10.4732143,6.72265625 10.4732143,5.58035714 C10.4732143,4.26422991 10.0076032,3.14055525 9.07638114,2.20933315 C8.14515904,1.27811105 7.02148438,0.8125 5.70535714,0.8125 C4.38922991,0.8125 3.26555525,1.27811105 2.33433315,2.20933315 C1.40311105,3.14055525 0.9375,4.26422991 0.9375,5.58035714 C0.9375,6.89648438 1.40311105,8.02015904 2.33433315,8.95138114 C3.26555525,9.88260324 4.38922991,10.3482143 5.70535714,10.3482143 C6.84765625,10.3482143 7.86165365,9.98400298 8.74734933,9.25558036 L11.305106,11.8133371 C11.3878813,11.8961124 11.4913504,11.9375 11.6155134,11.9375 Z M5.70535714,9.45424107 C5.17559524,9.45424107 4.67480469,9.35491071 4.20298549,9.15625 C3.73944382,8.95758929 3.32763672,8.67822266 2.96756417,8.31815011 C2.60749163,7.95807757 2.33226376,7.54627046 2.14188058,7.08272879 C1.93494234,6.6109096 1.83147321,6.11011905 1.83147321,5.58035714 C1.83147321,5.05059524 1.93494234,4.54980469 2.14188058,4.07798549 C2.33226376,3.61444382 2.60749163,3.20263672 2.96756417,2.84256417 C3.32763672,2.48249163 3.73944382,2.203125 4.20298549,2.00446429 C4.67480469,1.80580357 5.17559524,1.70647321 5.70535714,1.70647321 C6.23511905,1.70647321 6.7359096,1.80580357 7.20772879,2.00446429 C7.67127046,2.203125 8.08307757,2.48249163 8.44315011,2.84256417 C8.80322266,3.20263672 9.08258929,3.61444382 9.28125,4.07798549 C9.47991071,4.54980469 9.57924107,5.05059524 9.57924107,5.58035714 C9.57924107,6.11011905 9.47991071,6.6109096 9.28125,7.08272879 C9.08258929,7.54627046 8.80322266,7.95807757 8.44315011,8.31815011 C8.08307757,8.67822266 7.67127046,8.95758929 7.20772879,9.15625 C6.7359096,9.35491071 6.23511905,9.45424107 5.70535714,9.45424107 Z"/></svg>