<svg version="1.1" id="Livello_1" xmlns="http://www.w3.org/2000/svg" xmlns:xlink="http://www.w3.org/1999/xlink" x="0px" y="0px"
	 width="843px" height="108.4px" viewBox="0 0 843 108.4" style="enable-background:new 0 0 843 108.4;" xml:space="preserve">
<style type="text/css">
	.st0{fill:#FFFFFF;}
</style>
<path class="st0" d="M75,103L13.8,21v81.2H5.8V5.5h14.4l53.2,71.4V5.5h8.1V103H75z M102.9,54.9C102.9,28,119.3,4,147.6,4
	s44.7,24,44.7,50.9c0,27-16.4,48.8-44.7,48.8S102.9,81.9,102.9,54.9z M176.6,54.9c0-31.8-12.2-43.6-29-43.6s-29,11.7-29,43.6
	c0,32.7,12.2,41.5,29,41.5S176.6,87.6,176.6,54.9z M239.9,103l-40-97.5h16.3l30.4,75.7l30.4-75.7h8.4L244.9,103H239.9z M334.4,72.8
	h-36.4l-11.7,29.5h-8.9l39.9-97.5h5l40.5,97.5h-16.3L334.4,72.8z M316,27.3l-15,38.1h30.5L316,27.3z M422,103L391,25.6v76.7H383V5.5
	h16.4l29,74.5l32.1-74.5h15.3v96.8H461V23.9l-34,79H422z M497.2,54.9C497.2,28,513.6,4,541.9,4c28.3,0,44.7,24,44.7,50.9
	c0,27-16.4,48.8-44.7,48.8C513.6,103.7,497.2,81.9,497.2,54.9z M570.9,54.9c0-31.8-12.2-43.6-29-43.6c-16.9,0-29,11.7-29,43.6
	c0,32.7,12.2,41.5,29,41.5C558.8,96.4,570.9,87.6,570.9,54.9z M607.4,5.5H636c21.3,0,34.2,10.4,34.2,22.6c0,10.3-5.4,18.3-15.1,22.7
	c14.2,3.5,22.4,13.5,22.4,25.8c0,12.5-11.9,25.7-34.2,25.7h-35.9V5.5z M622.1,12.8v36.7h18c7.2,0,14.4-4.3,14.4-19.4
	c0-14.4-8.2-17.3-18.5-17.3H622.1z M622.1,56.9v38.7h21.3c10.3,0,18.5-4.3,18.5-18.8c0-15.7-8.2-19.9-18.5-19.9H622.1z M712.4,102.2
	h-14.8V5.5h14.8V102.2z M741.3,5.5h14.8v89.4h43.7v7.3h-58.5V5.5z M837.2,102.2h-14.8V5.5h14.8V102.2z"/>
</svg>
