<svg xmlns="http://www.w3.org/2000/svg" viewBox="0 0 53.36 9.55">
  <defs>
    <style>
      .cls-1 {
        fill: #047d5a;
      }

      .cls-2 {
        fill: #fff;
      }
    </style>
  </defs>
  <g id="Layer_2" data-name="Layer 2">
    <g id="Layer_1-2" data-name="Layer 1">
      <g>
        <path class="cls-1" d="M53.36,9.33H53V3.82h.36Zm-3.26,0h-.37V3.82h.37ZM43.36,6.58c0,1.56-.82,2.88-2.29,2.88s-2.3-1.32-2.3-2.88.83-2.89,2.3-2.89S43.36,5,43.36,6.58M31.27,7.92V3.82h.37V4.94h0a1.65,1.65,0,0,1,1.57-1.25,1.41,1.41,0,0,1,1.5,1.17h0a1.6,1.6,0,0,1,1.59-1.17c.9,0,1.57.58,1.57,1.88V9.33h-.37V5.56c0-1.41-.91-1.52-1.2-1.52-.91,0-1.57.71-1.57,2V9.33H34.4V5.56C34.4,4.17,33.55,4,33.23,4c-.71,0-1.59.62-1.59,2V9.41h-.38ZM44.69,0V5h0a1.94,1.94,0,0,1,1.89-1.3c1.47,0,2.17,1.22,2.17,2.76,0,2.62-1.48,3-2.17,3A2,2,0,0,1,44.71,8.1h0V9.33h-.37V0h.44M50.1,0V2.78h-.37V0Zm1.63,0V9.33h-.37V0Zm1.63,0V2.78H53V0Z"/>
        <g>
          <path class="cls-2" d="M46.6,9.11c1.32,0,1.8-1.4,1.8-2.66S47.8,4,46.6,4s-1.9,1-1.9,2.41.54,2.66,1.9,2.66"/>
          <path class="cls-2" d="M41.07,4c-1.26,0-1.93,1.22-1.93,2.54s.67,2.53,1.93,2.53S43,7.9,43,6.58,42.32,4,41.07,4"/>
        </g>
        <line class="cls-1" x1="49.73" x2="50.1"/>
        <line class="cls-1" x1="51.36" x2="51.73"/>
        <line class="cls-1" x1="53" x2="53.36"/>
      </g>
      <g>
        <path class="cls-1" d="M6.37,7.66V9.41H4.75V7.65A1.67,1.67,0,0,1,4,9.07a3,3,0,0,1-1.72.48A3.15,3.15,0,0,1,.77,9.11,1.75,1.75,0,0,1,0,7.46H1.62a1.41,1.41,0,0,0,.07.41.49.49,0,0,0,.28.3,1.3,1.3,0,0,0,.49.1A.74.74,0,0,0,3,8.11a.47.47,0,0,0,.16-.37.39.39,0,0,0-.28-.37c-.18-.08-.48-.18-.89-.31A8.8,8.8,0,0,1,1,6.73a1.52,1.52,0,0,1-.56-.47,1.34,1.34,0,0,1-.26-.88A1.72,1.72,0,0,1,.82,4a2.34,2.34,0,0,1,1.51-.49,2.62,2.62,0,0,1,1.58.45,1.68,1.68,0,0,1,.62,1.44H3a.59.59,0,0,0,0-.27.43.43,0,0,0-.15-.18.68.68,0,0,0-.24-.12,1.07,1.07,0,0,0-.25,0,1,1,0,0,0-.4.08.32.32,0,0,0-.19.31.28.28,0,0,0,.15.28c.09,0,.46.17,1.1.36a3.63,3.63,0,0,1,1.36.67,1.35,1.35,0,0,1,.4,1V3.6H7.46a1.73,1.73,0,0,1,1.46.62A2.16,2.16,0,0,1,9.4,5.59a2,2,0,0,1-.56,1.54,2.1,2.1,0,0,1-1.51.53Zm1.3-2.47a1.26,1.26,0,0,0-.58-.1H6.37V6.27H7a1.09,1.09,0,0,0,.69-.15.59.59,0,0,0,.17-.47c0-.24-.06-.39-.19-.46"/>
        <path class="cls-1" d="M31.26,9.41H27.13V6.61A3.25,3.25,0,0,1,26.4,8.7a2.63,2.63,0,0,1-3.87,0A3.08,3.08,0,0,1,21.81,7V9.55H20.23L18.11,6.39V9.55H16.56V9.27l-.18.1a2,2,0,0,1-.85.18A2.23,2.23,0,0,1,13.7,8.7a3.08,3.08,0,0,1-.44-.77l.49,1.48H12.07l-.23-.83H10.17l-.24.83H8.3L10.24,3.6h1.59l1.32,4a3.8,3.8,0,0,1-.13-1,3.13,3.13,0,0,1,.78-2.31,2.48,2.48,0,0,1,1.81-.79,2.59,2.59,0,0,1,1.22.28h1.38l2.05,3.11,0-3.11h1.53V6a3.14,3.14,0,0,1,.71-1.73,2.63,2.63,0,0,1,3.87,0,3.22,3.22,0,0,1,.74,2.09V3.6h1.62V7.92h2.51ZM10.53,7.34h1l-.47-1.8ZM18,6.21l-.34-.57H16.49a.84.84,0,0,0-.26-.52.69.69,0,0,0-.51-.21.91.91,0,0,0-.82.41,2.5,2.5,0,0,0-.26,1.28,2,2,0,0,0,.27,1,1,1,0,0,0,.92.47,1,1,0,0,0,.54-.16.72.72,0,0,0,.3-.49H16V6.21Zm6.46-1.3a1,1,0,0,0-.73.36,1.89,1.89,0,0,0-.32,1.23,1.87,1.87,0,0,0,.32,1.23,1,1,0,0,0,.73.37.94.94,0,0,0,.72-.36,1.82,1.82,0,0,0,.33-1.24,1.8,1.8,0,0,0-.33-1.22.93.93,0,0,0-.72-.37"/>
      </g>
    </g>
  </g>
</svg>
