<?xml version="1.0" encoding="utf-8"?>
<!-- Generator: Adobe Illustrator 25.4.1, SVG Export Plug-In . SVG Version: 6.00 Build 0)  -->
<svg version="1.1" id="Layer_1" xmlns="http://www.w3.org/2000/svg" xmlns:xlink="http://www.w3.org/1999/xlink" x="0px" y="0px"
	 viewBox="0 0 180 22" style="enable-background:new 0 0 180 22;" xml:space="preserve">
<style type="text/css">
	.st0{fill:#047D5A;}
	.st1{fill:#FFFFFF;}
</style>
<g>
	<path class="st0" d="M147.16,21.46h-0.84V8.91h0.84V21.46z M139.72,21.46h-0.84V8.91h0.84V21.46z M124.4,15.19
		c0,3.56-1.88,6.56-5.22,6.56c-3.34,0-5.22-3-5.22-6.56c0-3.56,1.88-6.57,5.22-6.57C122.52,8.62,124.4,11.63,124.4,15.19
		 M96.88,18.26V8.91h0.84v2.56h0.04c0.36-1.59,1.86-2.85,3.57-2.85c2.17,0,3.19,1.36,3.43,2.66h0.04c0.66-1.71,1.77-2.66,3.61-2.66
		c2.06,0,3.57,1.31,3.57,4.27v8.56h-0.84v-8.59c0-3.19-2.06-3.44-2.72-3.44c-2.06,0-3.56,1.61-3.56,4.62v7.41h-0.84v-8.59
		c0-3.15-1.95-3.44-2.68-3.44c-1.62,0-3.61,1.39-3.61,4.62v4.21v3.2v0.18h-0.87L96.88,18.26z M127.41,0.22 M127.41,0.22v11.35h0.04
		c0.64-1.95,2.48-2.95,4.32-2.95c3.34,0,4.94,2.79,4.94,6.27c0,5.98-3.36,6.86-4.94,6.86c-2.99,0-4.14-2.44-4.32-3.1h-0.04v2.8
		h-0.84V0.22h1.01 M127.41,0.22 M139.72,0.22v6.32h-0.84V0.22H139.72z M143.44,0.22v21.23h-0.84V0.22H143.44z M147.16,0.22v6.32
		h-0.84V0.22H147.16z"/>
	<g>
		<path class="st1" d="M131.77,20.95c2.99,0,4.09-3.17,4.09-6.06c0-2.78-1.37-5.47-4.09-5.47c-2.97,0-4.34,2.32-4.34,5.47
			C127.44,17.97,128.68,20.95,131.77,20.95"/>
		<path class="st1" d="M119.18,9.42c-2.86,0-4.38,2.76-4.38,5.76c0,3,1.53,5.76,4.38,5.76c2.86,0,4.38-2.76,4.38-5.76
			C123.56,12.18,122.03,9.42,119.18,9.42"/>
	</g>
	<line class="st0" x1="138.88" y1="0.22" x2="139.72" y2="0.22"/>
	<line class="st0" x1="142.6" y1="0.22" x2="143.44" y2="0.22"/>
	<line class="st0" x1="146.32" y1="0.22" x2="147.16" y2="0.22"/>
</g>
<g>
	<path class="st0" d="M40.22,17.65v3.99h-3.69v-3.99c-0.05,1.47-0.58,2.54-1.6,3.23c-1.07,0.72-2.39,1.08-3.93,1.08
		c-1.17,0-2.35-0.34-3.52-1.01c-1.17-0.67-1.76-1.92-1.76-3.74h3.7c0,0.32,0.05,0.63,0.16,0.94c0.11,0.31,0.32,0.53,0.64,0.68
		c0.32,0.14,0.69,0.21,1.1,0.21c0.52,0,0.91-0.12,1.16-0.35c0.25-0.23,0.37-0.52,0.37-0.86c0-0.39-0.21-0.66-0.63-0.84
		c-0.42-0.18-1.1-0.41-2.04-0.7c-0.94-0.29-1.64-0.54-2.11-0.75c-0.46-0.21-0.89-0.56-1.28-1.06c-0.39-0.5-0.59-1.16-0.59-1.99
		c0-1.43,0.47-2.52,1.4-3.26c0.93-0.74,2.08-1.11,3.43-1.11c1.46,0,2.65,0.34,3.59,1.03c0.94,0.68,1.41,1.77,1.41,3.28h-3.49
		c0.03-0.25,0.01-0.45-0.06-0.62c-0.08-0.17-0.19-0.31-0.35-0.42c-0.16-0.12-0.34-0.21-0.53-0.26c-0.19-0.06-0.39-0.08-0.59-0.08
		c-0.33,0-0.63,0.07-0.91,0.2c-0.28,0.14-0.42,0.37-0.42,0.69c0,0.32,0.11,0.53,0.33,0.64c0.22,0.11,1.06,0.38,2.51,0.82
		c1.45,0.45,2.49,0.95,3.1,1.52c0.55,0.52,0.85,1.25,0.9,2.2V8.42h6.18c1.49,0,2.59,0.46,3.32,1.4c0.72,0.93,1.08,1.97,1.08,3.12
		c0,1.55-0.42,2.73-1.27,3.52c-0.84,0.79-1.99,1.19-3.43,1.19H40.22z M43.18,12.04c-0.29-0.15-0.73-0.23-1.31-0.23h-1.65v2.69h1.43
		c0.8,0,1.32-0.12,1.58-0.35c0.26-0.24,0.39-0.59,0.39-1.06C43.61,12.54,43.47,12.19,43.18,12.04"/>
	<path class="st0" d="M96.86,21.64h-9.41v-6.36c-0.04,1.92-0.6,3.51-1.66,4.74c-1.11,1.29-2.58,1.94-4.41,1.94
		c-1.8,0-3.26-0.64-4.39-1.94c-0.92-1.06-1.46-2.37-1.63-3.92v5.86h-3.59l-4.84-7.18v7.18h-3.53v-0.64
		c-0.13,0.08-0.27,0.16-0.41,0.23c-0.6,0.28-1.24,0.42-1.92,0.42c-1.74,0-3.12-0.64-4.16-1.94c-0.43-0.53-0.76-1.11-1.01-1.75
		l1.11,3.37h-3.83l-0.5-1.88h-3.81l-0.54,1.88h-3.71l4.42-13.21h3.61l3.01,9.11c-0.2-0.73-0.31-1.52-0.31-2.37
		c0-2.33,0.6-4.08,1.79-5.27C58.33,8.7,59.7,8.1,61.26,8.1c1.07,0,1.99,0.22,2.77,0.63h3.13l4.68,7.07l0.03-7.07h3.49v5.22
		c0.17-1.55,0.7-2.86,1.61-3.92c1.11-1.29,2.58-1.94,4.41-1.94c1.8,0,3.27,0.64,4.39,1.94c1.08,1.23,1.64,2.82,1.68,4.75V8.42h3.69
		v9.83h5.71V21.64z M49.67,16.92h2.26l-1.07-4.09L49.67,16.92z M66.68,14.35l-0.76-1.3h-2.68c-0.07-0.48-0.26-0.88-0.59-1.18
		c-0.32-0.31-0.71-0.46-1.15-0.46c-0.85,0-1.47,0.31-1.86,0.93c-0.39,0.63-0.59,1.6-0.59,2.92c0,0.85,0.2,1.63,0.6,2.34
		c0.4,0.71,1.1,1.06,2.1,1.06c0.47,0,0.88-0.13,1.24-0.37c0.36-0.25,0.58-0.62,0.67-1.11h-1.62v-2.83H66.68z M81.38,11.4
		c-0.61,0-1.17,0.28-1.65,0.82c-0.49,0.55-0.73,1.48-0.73,2.8c0,1.31,0.25,2.24,0.74,2.8c0.49,0.56,1.04,0.83,1.65,0.83
		c0.62,0,1.17-0.27,1.65-0.82c0.49-0.55,0.73-1.48,0.73-2.8c0-1.3-0.25-2.24-0.74-2.8C82.54,11.68,81.99,11.4,81.38,11.4"/>
</g>
</svg>
