<svg xmlns="http://www.w3.org/2000/svg" width="35" height="35" viewBox="0 0 35 35"><g fill="none" fill-rule="evenodd"><circle cx="17.5" cy="17.5" r="17.5" fill="#FFF"/><path fill="#000" fill-rule="nonzero" d="M21.8392998,24.2142872 C23.3476722,24.2142872 24.5714459,22.9905134 24.5714459,21.482141 L24.5714459,12.3749873 C24.5714459,10.866615 23.3476722,9.64284122 21.8392998,9.64284122 L12.7321461,9.64284122 C11.2237738,9.64284122 10,10.866615 10,12.3749873 L10,21.482141 C10,22.9905134 11.2237738,24.2142872 12.7321461,24.2142872 L21.8392998,24.2142872 Z M14.6104966,18.9397273 C13.5005622,18.9397273 12.5993335,18.0384985 12.5993335,16.9285642 C12.5993335,15.8186298 13.5005622,14.9174011 14.6104966,14.9174011 C15.7204309,14.9174011 16.6216597,15.8186298 16.6216597,16.9285642 C16.6216597,18.0384985 15.7204309,18.9397273 14.6104966,18.9397273 Z M19.9609494,18.9397273 C18.851015,18.9397273 17.9497863,18.0384985 17.9497863,16.9285642 C17.9497863,15.8186298 18.851015,14.9174011 19.9609494,14.9174011 C21.0708837,14.9174011 21.9721125,15.8186298 21.9721125,16.9285642 C21.9721125,18.0384985 21.0708837,18.9397273 19.9609494,18.9397273 Z"/></g></svg>