<svg xmlns="http://www.w3.org/2000/svg" width="12" height="18" viewBox="0 0 12 18"><path d="M24.7142925,33.4285731 C25.2500075,33.4285731 25.7634009,33.1272335 25.9977762,32.6361615 L30.060281,23.9977583 C30.35046,23.3839183 30.4285851,22.6807925 30.4285851,21.9999881 C30.4285851,18.8415022 27.8727784,16.2856956 24.7142925,16.2856956 C21.5558066,16.2856956 19,18.8415022 19,21.9999881 C19,22.6807925 19.0781251,23.3839183 19.368304,23.9977583 L23.4419696,32.6361615 C23.6651841,33.1272335 24.1785776,33.4285731 24.7142925,33.4285731 Z M24.7142925,24.8571343 C23.1406299,24.8571343 21.8571463,23.5736507 21.8571463,21.9999881 C21.8571463,20.4263255 23.1406299,19.1428418 24.7142925,19.1428418 C26.2879551,19.1428418 27.5714388,20.4263255 27.5714388,21.9999881 C27.5714388,23.5736507 26.2879551,24.8571343 24.7142925,24.8571343 Z" transform="translate(-19 -16)"/></svg>