<svg xmlns="http://www.w3.org/2000/svg" width="12" height="18" viewBox="0 0 12 18"><path fill="#FFF" d="M5.71429253,17.4285731 C6.25000745,17.4285731 6.76340092,17.1272335 6.9977762,16.6361615 L11.060281,7.99775832 C11.35046,7.3839183 11.4285851,6.68079246 11.4285851,5.99998808 C11.4285851,2.84150217 8.87277843,0.285695553 5.71429253,0.285695553 C2.55580662,0.285695553 0,2.84150217 0,5.99998808 C0,6.68079246 0.0781250931,7.3839183 0.36830401,7.99775832 L4.44196958,16.6361615 C4.66518413,17.1272335 5.1785776,17.4285731 5.71429253,17.4285731 Z M5.71429253,8.85713434 C4.14062994,8.85713434 2.85714626,7.57365067 2.85714626,5.99998808 C2.85714626,4.42632549 4.14062994,3.14284182 5.71429253,3.14284182 C7.28795512,3.14284182 8.57143879,4.42632549 8.57143879,5.99998808 C8.57143879,7.57365067 7.28795512,8.85713434 5.71429253,8.85713434 Z"/></svg>