<svg xmlns="http://www.w3.org/2000/svg" width="35" height="35" viewBox="0 0 35 35"><g fill="none" fill-rule="evenodd"><circle cx="17.5" cy="17.5" r="17.5" fill="#FFF"/><path fill="#000" fill-rule="nonzero" d="M17.4991415,23.9531392 C21.0755966,23.9531392 23.4472512,23.7728935 23.4472512,23.7728935 C23.7792829,23.734947 24.5097525,23.734947 25.1548426,23.0613971 C25.1548426,23.0613971 25.6766066,22.5396331 25.8283925,21.372779 C25.9840593,20.1847957 25.9982108,18.9968123 25.9991757,18.6949075 L25.9991757,17.2582318 C25.9982108,16.9563269 25.9840593,15.7683436 25.8283925,14.5803602 C25.6766066,13.4040195 25.1548426,12.8917421 25.1548426,12.8917421 C24.5097525,12.2087056 23.7792829,12.2087056 23.4472512,12.1707591 C23.4472512,12.1707591 21.0755966,12 17.4991415,12 C13.9226863,12 11.5510317,12.1707591 11.5510317,12.1707591 C11.2190001,12.2087056 10.4885304,12.2087056 9.84344039,12.8917421 C9.84344039,12.8917421 9.32167637,13.4040195 9.16989048,14.5803602 C9.03060967,15.6432927 9.00461947,16.7062252 9,17.1344728 L9,18.8186665 C9.00461947,19.2469141 9.03060967,20.3098466 9.16989048,21.372779 C9.32167637,22.5396331 9.84344039,23.0613971 9.84344039,23.0613971 C10.4885304,23.734947 11.3423261,23.7159738 11.7217908,23.7823801 C11.7217908,23.7823801 13.0783773,23.9151928 17.4991415,23.9531392 Z M15.7441171,20.1774651 L15.7441171,15.405696 L20.3356404,17.8058105 L15.7441171,20.1774651 Z"/></g></svg>